<svg width="21" height="18" viewBox="0 0 21 18" fill="none" xmlns="http://www.w3.org/2000/svg">
<path d="M10.5 6.65685C8.9947 6.65685 7.76628 7.70978 7.76628 9.00001C7.76628 10.2902 8.9947 11.3432 10.5 11.3432C12.0052 11.3432 13.2337 10.2902 13.2337 9.00001C13.2337 7.70978 12.0052 6.65685 10.5 6.65685ZM18.699 9.00001C18.699 8.0297 18.7093 7.06817 18.6457 6.09962C18.5821 4.97462 18.2827 3.97618 17.3229 3.15353C16.3611 2.32911 15.1983 2.07423 13.8858 2.01974C12.7538 1.96524 11.632 1.97403 10.502 1.97403C9.36999 1.97403 8.24822 1.96524 7.11824 2.01974C5.80574 2.07423 4.64089 2.33087 3.68113 3.15353C2.71931 3.97794 2.42195 4.97462 2.35837 6.09962C2.2948 7.06993 2.30505 8.03146 2.30505 9.00001C2.30505 9.96857 2.2948 10.9318 2.35837 11.9004C2.42195 13.0254 2.72136 14.0238 3.68113 14.8465C4.64294 15.6709 5.80574 15.9258 7.11824 15.9803C8.25027 16.0348 9.37205 16.026 10.502 16.026C11.6341 16.026 12.7558 16.0348 13.8858 15.9803C15.1983 15.9258 16.3632 15.6692 17.3229 14.8465C18.2847 14.0221 18.5821 13.0254 18.6457 11.9004C18.7113 10.9318 18.699 9.97032 18.699 9.00001ZM10.5 12.6053C8.17234 12.6053 6.29382 10.9951 6.29382 9.00001C6.29382 7.00489 8.17234 5.39474 10.5 5.39474C12.8276 5.39474 14.7061 7.00489 14.7061 9.00001C14.7061 10.9951 12.8276 12.6053 10.5 12.6053ZM14.8784 6.08907C14.3349 6.08907 13.8961 5.7129 13.8961 5.24708C13.8961 4.78126 14.3349 4.40509 14.8784 4.40509C15.4219 4.40509 15.8607 4.78126 15.8607 5.24708C15.8609 5.35769 15.8356 5.46724 15.7863 5.56946C15.737 5.67168 15.6646 5.76455 15.5734 5.84277C15.4821 5.92098 15.3738 5.983 15.2545 6.02526C15.1353 6.06753 15.0074 6.08921 14.8784 6.08907Z" fill="black"/>
</svg>
