<svg width="21" height="18" viewBox="0 0 21 18" fill="none" xmlns="http://www.w3.org/2000/svg">
<path fill-rule="evenodd" clip-rule="evenodd" d="M0.875 2.1285C0.875 1.7629 1.04444 1.41227 1.34605 1.15376C1.64765 0.895236 2.05672 0.750002 2.48325 0.750002H18.515C18.7264 0.749706 18.9358 0.785149 19.1311 0.854302C19.3265 0.923455 19.504 1.02496 19.6536 1.153C19.8031 1.28105 19.9218 1.43312 20.0027 1.60051C20.0835 1.7679 20.1251 1.94732 20.125 2.1285V15.87C20.1252 16.0512 20.0838 16.2307 20.003 16.3982C19.9222 16.5656 19.8037 16.7178 19.6543 16.846C19.5048 16.9742 19.3273 17.0758 19.132 17.1451C18.9367 17.2145 18.7273 17.2501 18.5159 17.25H2.48325C2.27198 17.25 2.06278 17.2143 1.8676 17.145C1.67242 17.0757 1.49509 16.9741 1.34574 16.846C1.19639 16.7179 1.07794 16.5658 0.99717 16.3985C0.916399 16.2312 0.874885 16.0518 0.875 15.8708V2.1285ZM8.4945 7.041H11.1011V8.163C11.4774 7.518 12.4399 6.9375 13.8863 6.9375C16.6591 6.9375 17.3163 8.22225 17.3163 10.5795V14.946H14.5101V11.1165C14.5101 9.774 14.1339 9.0165 13.1784 9.0165C11.8528 9.0165 11.3015 9.83325 11.3015 11.1165V14.946H8.4945V7.041ZM3.682 14.8433H6.489V6.9375H3.682V14.8425V14.8433ZM6.89063 4.359C6.89592 4.56501 6.85315 4.76984 6.76484 4.96149C6.67652 5.15313 6.54443 5.32773 6.37633 5.47503C6.20822 5.62232 6.00749 5.73936 5.7859 5.81926C5.56431 5.89916 5.32634 5.94031 5.08594 5.94031C4.84554 5.94031 4.60757 5.89916 4.38598 5.81926C4.16439 5.73936 3.96365 5.62232 3.79555 5.47503C3.62744 5.32773 3.49536 5.15313 3.40704 4.96149C3.31872 4.76984 3.27596 4.56501 3.28125 4.359C3.29164 3.95464 3.48634 3.56985 3.82365 3.28702C4.16096 3.00419 4.61407 2.84581 5.08594 2.84581C5.55781 2.84581 6.01091 3.00419 6.34823 3.28702C6.68554 3.56985 6.88024 3.95464 6.89063 4.359Z" fill="black"/>
</svg>
