<svg width="26" height="27" viewBox="0 0 26 27" fill="none" xmlns="http://www.w3.org/2000/svg">
<path d="M25.654 24.108L18.9469 17.5292C20.456 15.6818 21.2765 13.3843 21.2727 11.0171C21.2727 5.25525 16.5109 0.584229 10.6363 0.584229C4.76213 0.584229 0 5.25525 0 11.0171C0 16.7789 4.76213 21.4499 10.6363 21.4499C13.1477 21.4499 15.4558 20.5962 17.2755 19.1683L23.9826 25.7471C24.0922 25.8549 24.2224 25.9404 24.3658 25.9987C24.5092 26.057 24.6629 26.0869 24.8181 26.0867C25.0519 26.0868 25.2804 26.0188 25.4747 25.8914C25.6691 25.7641 25.8205 25.5831 25.91 25.3713C25.9995 25.1595 26.0229 24.9264 25.9773 24.7015C25.9318 24.4767 25.8192 24.2701 25.654 24.108ZM10.6363 19.1315C6.06744 19.1315 2.36363 15.4986 2.36363 11.0171C2.36363 6.53559 6.06744 2.90264 10.6363 2.90264C15.2055 2.90264 18.9091 6.53559 18.9091 11.0171C18.9091 15.4986 15.2055 19.1315 10.6363 19.1315Z" fill="#FFFDFD"/>
</svg>
