<svg width="20" height="25" viewBox="0 0 20 25" fill="none" xmlns="http://www.w3.org/2000/svg">
<path d="M2.26366 8.62061L7.22264 7.71974L9.43944 2.10206C9.49999 1.94825 9.5996 1.82374 9.72265 1.74806C10.0312 1.55763 10.4062 1.71632 10.5605 2.10206L12.7773 7.71974L17.7363 8.62061C17.873 8.64503 17.998 8.72559 18.0937 8.84766C18.2094 8.99631 18.2732 9.1963 18.271 9.40368C18.2688 9.61105 18.2008 9.80886 18.082 9.95362L14.4941 14.3262L15.3418 20.5005C15.3617 20.6441 15.349 20.7918 15.3051 20.9269C15.2612 21.062 15.188 21.1789 15.0936 21.2646C14.9993 21.3503 14.8876 21.4012 14.7713 21.4115C14.655 21.4219 14.5387 21.3913 14.4355 21.3232L9.99999 18.4082L5.56444 21.3232C5.44335 21.4038 5.30272 21.4307 5.16796 21.4014C4.82811 21.3281 4.5996 20.9253 4.65819 20.5005L5.50585 14.3262L1.91796 9.95362C1.8203 9.83399 1.75585 9.67774 1.73631 9.50684C1.68358 9.0796 1.92186 8.68409 2.26366 8.62061Z" fill="#F24E1E"/>
</svg>
