<svg width="21" height="18" viewBox="0 0 21 18" fill="none" xmlns="http://www.w3.org/2000/svg">
<path d="M20.6876 3.70281C19.9569 3.98031 19.1721 4.16781 18.347 4.25256C19.1983 3.8159 19.8353 3.12866 20.139 2.31906C19.3391 2.7263 18.4636 3.01295 17.5507 3.16656C16.9368 2.60471 16.1236 2.2323 15.2375 2.10716C14.3513 1.98202 13.4418 2.11115 12.65 2.4745C11.8583 2.83784 11.2286 3.41508 10.8588 4.11659C10.489 4.81809 10.3998 5.60462 10.6049 6.35406C8.98418 6.28431 7.39862 5.92322 5.9512 5.29424C4.50377 4.66525 3.22681 3.78243 2.2032 2.70306C1.8532 3.22056 1.65195 3.82056 1.65195 4.45956C1.65156 5.0348 1.81683 5.60124 2.13309 6.10861C2.44936 6.61597 2.90684 7.04859 3.46495 7.36806C2.81769 7.3504 2.18471 7.2005 1.6187 6.93081V6.97581C1.61863 7.78261 1.94423 8.56459 2.54023 9.18905C3.13624 9.81352 3.96595 10.242 4.88857 10.4018C4.28814 10.5411 3.65862 10.5616 3.04757 10.4618C3.30788 11.156 3.81495 11.7631 4.49777 12.198C5.1806 12.6329 6.005 12.8739 6.85557 12.8873C5.41168 13.8589 3.62848 14.3859 1.79282 14.3836C1.46766 14.3836 1.14277 14.3674 0.819824 14.3348C2.68312 15.3617 4.85212 15.9067 7.06732 15.9046C14.5661 15.9046 18.6655 10.5811 18.6655 5.96406C18.6655 5.81406 18.6611 5.66256 18.6532 5.51256C19.4506 5.01829 20.1389 4.40623 20.6858 3.70506L20.6876 3.70281Z" fill="black"/>
</svg>
